<svg xmlns="http://www.w3.org/2000/svg" width="24" fill="#ffffff" height="24" id="user-experience"><g fill="none" fill-rule="evenodd"><path stroke="#4A4A4A" stroke-linecap="round" d="M7.01 19H5a2 2 0 0 1-2-2V5a2 2 0 0 1 2-2h15a2 2 0 0 1 2 2v12a2 2 0 0 1-2 2h-2.1"></path><path stroke="#4A4A4A" stroke-linecap="square" d="M3.5 7.5h18"></path><circle cx="5.5" cy="5.5" r="1" fill="#4A4A4A" stroke="#4A4A4A" stroke-width=".5"></circle><circle cx="7.5" cy="5.5" r="1" fill="#4A4A4A" stroke="#4A4A4A" stroke-width=".5"></circle><circle cx="9.5" cy="5.5" r="1" fill="#4A4A4A" stroke="#4A4A4A" stroke-width=".5"></circle><path stroke="#4A4A4A" d="M11 22.5v-5a1.5 1.5 0 0 1 3 0v5"></path><path stroke="#4A4A4A" stroke-linecap="round" d="M15.561 20.164a4 4 0 1 0-6.21-.107"></path><path fill="#4A4A4A" d="M12.5 17a.5.5 0 0 1 .5.5v.5h-1v-.5a.5.5 0 0 1 .5-.5z"></path></g></svg>